<?xml version="1.0" encoding="utf-8"?>
<!-- Generator: Adobe Illustrator 25.0.0, SVG Export Plug-In . SVG Version: 6.00 Build 0)  -->
<svg version="1.1" id="Слой_1" xmlns="http://www.w3.org/2000/svg" xmlns:xlink="http://www.w3.org/1999/xlink" x="0px"
     y="0px"
     viewBox="0 0 257.32 257.29" style="enable-background:new 0 0 257.32 257.29;" xml:space="preserve">
<g>
	<g>
		<path d="M136.06,77.85c0,7.62,0.24,15.26-0.09,22.87c-0.19,4.38-0.79,8.9-2.13,13.06c-4.67,14.47-16.43,21.5-30.27,22.04
			c-17.21,0.67-34.49,0.74-51.69-0.04c-18.45-0.84-29.89-12.82-32.19-31.28c-0.35-2.82-0.13-5.7-0.15-8.56
			c-0.1-13.89-0.15-27.79-0.31-41.68C19,33.73,36.7,17.44,57.17,19.38c1.18,0.11,2.38,0.1,3.57,0.1c14.45,0.04,28.96-0.73,43.34,0.3
			c19.29,1.38,31.2,14.42,31.92,33.77c0.3,8.09,0.05,16.2,0.05,24.3C136.05,77.85,136.05,77.85,136.06,77.85z M120.82,78.02
			c-0.01,0-0.02,0-0.03,0c0-8.02,0.16-16.04-0.05-24.06c-0.15-5.79-1.77-11.21-6.65-14.9c-4.18-3.15-9.09-4.44-14.31-4.43
			c-6.35,0.01-12.7,0.1-19.06,0.14c-8.97,0.05-17.96-0.12-26.92,0.18C43.5,35.3,37.31,40.29,35.55,49.44
			c-0.6,3.09-0.7,6.31-0.73,9.47c-0.12,13.66-0.31,27.32-0.11,40.97c0.14,9.79,4.05,17.7,14.06,20.06c2.14,0.51,4.39,0.75,6.59,0.79
			c5.4,0.09,10.8-0.04,16.2-0.03c9.61,0.02,19.22,0.2,28.83,0.08c10.43-0.14,17.27-4.21,19.61-13.77c0.52-2.14,0.76-4.39,0.79-6.59
			C120.87,92.95,120.82,85.49,120.82,78.02z"/>
        <path d="M238.17,179.08c-0.04,32.6-26.55,59.02-59.22,58.99c-32.9-0.03-59.28-26.53-59.2-59.49
			c0.08-32.39,26.67-58.99,58.85-58.89C211.84,119.8,238.21,146.08,238.17,179.08z M222.91,178.93
			c-0.08-24.51-19.69-44.08-44.07-43.98c-24.54,0.1-43.94,19.79-43.83,44.47c0.11,24.1,19.93,43.45,44.44,43.4
			C203.32,222.77,222.99,202.91,222.91,178.93z"/>
        <path d="M174.04,36.68c0.99,1.69,1.86,3.09,2.64,4.55c1.98,3.72,0.84,8.11-2.61,10.23c-3.57,2.19-8.13,1.22-10.42-2.46
			c-3.69-5.92-7.33-11.89-10.79-17.95c-3.18-5.56,0.55-11.51,7.06-11.51c31.56,0.02,60.72,19.81,72.45,49.14
			c3.6,9.01,5.6,18.33,5.74,28.04c0.08,5.52-2.74,9.08-7.36,9.19c-4.64,0.11-7.66-3.35-7.9-8.81c-1.1-24.94-12.71-43.4-34.56-55.32
			c-3.79-2.07-8.07-3.25-12.14-4.79C175.58,36.79,174.94,36.81,174.04,36.68z"/>
        <path d="M83.53,220.77c-0.89-1.53-1.77-2.92-2.55-4.38c-1.98-3.72-0.83-8.11,2.62-10.23c3.58-2.19,8.11-1.23,10.42,2.47
			c3.69,5.92,7.33,11.89,10.79,17.95c3.12,5.47-0.52,11.45-6.83,11.51c-37.62,0.33-71.53-28.4-77.33-65.61
			c-0.63-4.06-0.89-8.2-1.06-12.32c-0.21-4.91,2.92-8.36,7.35-8.45c4.41-0.1,7.76,3.22,7.83,8.1c0.11,7.79,1.41,15.33,4.35,22.53
			c7.94,19.47,22.05,32.18,42.19,38.22c0.45,0.14,0.92,0.24,1.39,0.32C82.91,220.91,83.14,220.82,83.53,220.77z"/>
        <path d="M78.99,73.93c-3.88,0-7.59,0-11.3,0c-3.26,0-6.51,0.02-9.77-0.01c-5.01-0.04-8.48-3.24-8.43-7.73
			c0.05-4.48,3.36-7.49,8.33-7.51c4.05-0.02,8.1,0,12.09,0c0.57-1.26,0.95-2.49,1.62-3.53c1.6-2.49,4-3.59,6.92-3.31
			c3.14,0.3,5.43,2.03,6.31,5.02c0.48,1.64,1.24,1.88,2.67,1.85c3.57-0.07,7.15-0.06,10.72-0.01c4.5,0.06,7.81,3.28,7.82,7.54
			c0.02,4.26-3.25,7.51-7.75,7.69c-1.02,0.04-2.05,0.01-2.8,0.01c-1.86,4.71-3.62,9.18-5.44,13.79c2.36,1.95,5.29,2.85,8.57,3.06
			c4.64,0.29,7.69,3.75,7.44,8.19c-0.24,4.18-3.71,7.23-8.32,6.95c-2.59-0.16-5.19-0.65-7.7-1.32c-1.97-0.53-3.86-1.44-5.67-2.4
			c-1.74-0.92-3.33-2.13-4.42-2.83c-5.32,2.04-10.24,4.15-15.33,5.77c-2.44,0.77-5.17,0.79-7.78,0.81
			c-3.85,0.04-6.88-2.91-7.33-6.78c-0.42-3.64,1.94-7.18,5.61-8.04c2.15-0.5,4.43-0.44,6.58-0.94c8.07-1.88,13.68-6.73,16.83-14.39
			C78.68,75.28,78.77,74.74,78.99,73.93z"/>
        <path d="M157.56,200.6h-6.54c-2.62,0-4.32-2.78-3.11-5.11l16.92-32.71c1-1.93,1.96-3.66,2.89-5.19s1.94-2.83,3.03-3.91
			c1.09-1.08,2.32-1.9,3.69-2.48c1.38-0.58,3-0.86,4.89-0.86c1.84,0,3.41,0.3,4.72,0.88c1.31,0.59,2.48,1.43,3.53,2.53
			c1.04,1.1,2.02,2.44,2.93,4.03c0.91,1.59,1.88,3.38,2.93,5.37l16.88,32.33c1.22,2.33-0.47,5.12-3.1,5.12h-6.1
			c-1.25,0-2.41-0.67-3.04-1.76l-6.54-11.38h-24.95l-5.93,11.27C160.05,199.88,158.86,200.6,157.56,200.6z M173.14,174.59h11.91
			l-5.92-10.71L173.14,174.59z"/>
	</g>
</g>
</svg>