<?xml version="1.0" encoding="utf-8"?>
<!-- Generator: Adobe Illustrator 25.0.0, SVG Export Plug-In . SVG Version: 6.00 Build 0)  -->
<svg version="1.1" id="Слой_1" xmlns="http://www.w3.org/2000/svg" xmlns:xlink="http://www.w3.org/1999/xlink" x="0px" y="0px"
	 viewBox="0 0 1199.07 275.56" style="enable-background:new 0 0 1199.07 275.56;" xml:space="preserve">
<!-- ІЗМІНА: Прибрано fill="white" -->
<g>
	<g>
		<path d="M143.82,86.97c0,7.62,0.24,15.26-0.09,22.87c-0.19,4.38-0.79,8.9-2.13,13.06c-4.67,14.47-16.43,21.5-30.27,22.04
			c-17.21,0.67-34.49,0.74-51.69-0.04c-18.45-0.84-29.89-12.82-32.19-31.28c-0.35-2.82-0.13-5.7-0.15-8.56
			c-0.1-13.89-0.15-27.79-0.31-41.68C26.77,42.85,44.46,26.56,64.93,28.5c1.18,0.11,2.38,0.1,3.57,0.1
			c14.45,0.04,28.96-0.73,43.34,0.3c19.29,1.38,31.2,14.42,31.92,33.77c0.3,8.09,0.05,16.2,0.05,24.3
			C143.82,86.97,143.82,86.97,143.82,86.97z M128.58,87.15c-0.01,0-0.02,0-0.03,0c0-8.02,0.16-16.04-0.05-24.06
			c-0.15-5.79-1.77-11.21-6.65-14.9c-4.18-3.15-9.09-4.44-14.31-4.43c-6.35,0.01-12.7,0.1-19.06,0.14
			c-8.97,0.05-17.96-0.12-26.92,0.18c-10.29,0.34-16.48,5.33-18.25,14.48c-0.6,3.09-0.7,6.31-0.73,9.47
			c-0.12,13.66-0.31,27.32-0.11,40.97c0.14,9.79,4.05,17.7,14.06,20.06c2.14,0.51,4.39,0.75,6.59,0.79c5.4,0.09,10.8-0.04,16.2-0.03
			c9.61,0.02,19.22,0.2,28.83,0.08c10.43-0.14,17.27-4.21,19.61-13.77c0.52-2.14,0.76-4.39,0.79-6.59
			C128.64,102.08,128.58,94.61,128.58,87.15z"/>
		<path d="M245.94,188.2c-0.04,32.6-26.55,59.02-59.22,58.99c-32.9-0.03-59.28-26.53-59.2-59.49c0.08-32.39,26.67-58.99,58.85-58.89
			C219.61,128.93,245.98,155.21,245.94,188.2z M230.68,188.06c-0.08-24.51-19.69-44.08-44.07-43.98
			c-24.54,0.1-43.94,19.79-43.83,44.47c0.11,24.1,19.93,43.45,44.44,43.4C211.09,231.89,230.76,212.03,230.68,188.06z"/>
		<path d="M181.8,45.8c0.99,1.69,1.86,3.09,2.64,4.55c1.98,3.72,0.84,8.11-2.61,10.23c-3.57,2.19-8.13,1.22-10.42-2.46
			c-3.69-5.92-7.33-11.89-10.79-17.95c-3.18-5.56,0.55-11.51,7.06-11.51c31.56,0.02,60.72,19.81,72.45,49.14
			c3.6,9.01,5.6,18.33,5.74,28.04c0.08,5.52-2.74,9.08-7.36,9.19c-4.64,0.11-7.66-3.35-7.9-8.81c-1.1-24.94-12.71-43.4-34.56-55.32
			c-3.79-2.07-8.07-3.25-12.14-4.79C183.35,45.91,182.71,45.93,181.8,45.8z"/>
		<path d="M91.3,229.89c-0.89-1.53-1.77-2.92-2.55-4.38c-1.98-3.72-0.83-8.11,2.62-10.23c3.58-2.19,8.11-1.23,10.42,2.47
			c3.69,5.92,7.33,11.89,10.79,17.95c3.12,5.47-0.52,11.45-6.83,11.51c-37.62,0.33-71.53-28.4-77.33-65.61
			c-0.63-4.06-0.89-8.2-1.06-12.32c-0.21-4.91,2.92-8.36,7.35-8.45c4.41-0.1,7.76,3.22,7.83,8.1c0.11,7.79,1.41,15.33,4.35,22.53
			c7.94,19.47,22.05,32.18,42.19,38.22c0.45,0.14,0.92,0.24,1.39,0.32C90.68,230.03,90.9,229.95,91.3,229.89z"/>
		<path d="M86.75,83.05c-3.88,0-7.59,0-11.3,0c-3.26,0-6.51,0.02-9.77-0.01c-5.01-0.04-8.48-3.24-8.43-7.73
			c0.05-4.48,3.36-7.49,8.33-7.51c4.05-0.02,8.1,0,12.09,0c0.57-1.26,0.95-2.49,1.62-3.53c1.6-2.49,4-3.59,6.92-3.31
			c3.14,0.3,5.43,2.03,6.31,5.02c0.48,1.64,1.24,1.88,2.67,1.85c3.57-0.07,7.15-0.06,10.72-0.01c4.5,0.06,7.81,3.28,7.82,7.54
			c0.02,4.26-3.25,7.51-7.75,7.69c-1.02,0.04-2.05,0.01-2.8,0.01c-1.86,4.71-3.62,9.18-5.44,13.79c2.36,1.95,5.29,2.85,8.57,3.06
			c4.64,0.29,7.69,3.75,7.44,8.19c-0.24,4.18-3.71,7.23-8.32,6.95c-2.59-0.16-5.19-0.65-7.7-1.32c-1.97-0.53-3.86-1.44-5.67-2.4
			c-1.74-0.92-3.33-2.13-4.42-2.83c-5.32,2.04-10.24,4.15-15.33,5.77c-2.44,0.77-5.17,0.79-7.78,0.81
			c-3.85,0.04-6.88-2.91-7.33-6.78c-0.42-3.64,1.94-7.18,5.61-8.04c2.15-0.5,4.43-0.44,6.58-0.94c8.07-1.88,13.68-6.73,16.83-14.39
			C86.45,84.41,86.53,83.86,86.75,83.05z"/>
		<path d="M165.32,209.72h-6.54c-2.62,0-4.32-2.78-3.11-5.11l16.92-32.71c1-1.93,1.96-3.66,2.89-5.19c0.93-1.53,1.94-2.83,3.03-3.91
			c1.09-1.08,2.32-1.9,3.69-2.48c1.38-0.58,3-0.86,4.89-0.86c1.84,0,3.41,0.3,4.72,0.88s2.48,1.43,3.53,2.53
			c1.04,1.1,2.02,2.44,2.93,4.03c0.91,1.59,1.88,3.38,2.93,5.37l16.88,32.33c1.22,2.33-0.47,5.12-3.1,5.12h-6.1
			c-1.25,0-2.41-0.67-3.04-1.76l-6.54-11.38h-24.95l-5.93,11.27C167.82,209,166.62,209.72,165.32,209.72z M180.91,183.71h11.91
			L186.89,173L180.91,183.71z"/>
	</g>
	<g>
		<path d="M294.04,60.71v50.73c0,2.25-1.82,4.07-4.07,4.07h-8.25c-2.25,0-4.07-1.82-4.07-4.07V60.71c0-2.25,1.82-4.07,4.07-4.07
			h8.25C292.22,56.64,294.04,58.47,294.04,60.71z"/>
		<path d="M311.97,115.32l-6.05-0.17c-2.2-0.06-3.96-1.86-3.96-4.07V71.18c0-1.98,0.37-3.85,1.1-5.61c0.73-1.75,1.75-3.29,3.03-4.6
			c1.29-1.31,2.8-2.35,4.52-3.11c1.73-0.76,3.59-1.14,5.6-1.14c1.91,0,3.67,0.33,5.28,0.99c1.61,0.66,3.07,1.55,4.39,2.69
			c1.31,1.13,2.48,2.47,3.48,4c1,1.53,1.86,3.16,2.55,4.89l13.22,32.54l14.45-34.28c1.29-3.53,3.14-6.22,5.55-8.06
			c2.41-1.84,5.37-2.76,8.87-2.76c2.22,0,4.22,0.44,6.01,1.33c1.79,0.89,3.32,2.08,4.6,3.58c1.28,1.49,2.25,3.22,2.94,5.18
			c0.68,1.96,1.02,3.99,1.02,6.11v38.06c0,2.25-1.82,4.07-4.07,4.07h-6.05c-2.25,0-4.07-1.82-4.07-4.07V72.14l-13.99,30.65
			c-0.93,2.04-1.84,3.9-2.74,5.59c-0.9,1.69-1.92,3.13-3.05,4.33c-1.13,1.2-2.43,2.12-3.9,2.78c-1.47,0.66-3.25,0.99-5.33,0.99
			c-1.91,0-3.63-0.39-5.18-1.18c-1.55-0.79-2.95-1.81-4.21-3.09c-1.26-1.28-2.39-2.74-3.38-4.39c-0.99-1.65-1.89-3.35-2.69-5.1
			l-13.76-30.03v38.57C316.15,113.54,314.26,115.38,311.97,115.32z"/>
		<path d="M410.75,115.05h-7.59c-3.05,0-5.02-3.23-3.61-5.94L419.2,71.1c1.16-2.24,2.28-4.25,3.36-6.03
			c1.08-1.78,2.25-3.29,3.52-4.54c1.26-1.25,2.69-2.21,4.29-2.88c1.6-0.67,3.49-1,5.68-1c2.14,0,3.97,0.34,5.49,1.02
			c1.52,0.68,2.88,1.66,4.1,2.94c1.21,1.28,2.34,2.83,3.4,4.68c1.06,1.84,2.19,3.92,3.4,6.24l19.62,37.57
			c1.41,2.71-0.55,5.95-3.61,5.95h-7.09c-1.46,0-2.8-0.78-3.53-2.04l-7.6-13.22h-28.99l-6.9,13.09
			C413.65,114.21,412.26,115.05,410.75,115.05z M428.86,84.82h13.84l-6.88-12.45L428.86,84.82z"/>
		<path d="M529.13,78.1h33.18c2.25,0,4.07,1.82,4.07,4.07v14.52c0,2.06-0.29,3.94-0.87,5.64c-0.58,1.7-1.39,3.22-2.43,4.56
			c-1.05,1.34-2.27,2.51-3.67,3.5c-1.4,0.99-2.93,1.81-4.6,2.47c-1.66,0.66-3.41,1.15-5.23,1.47c-1.83,0.33-3.67,0.49-5.53,0.49
			h-39.31c-1.86,0-3.68-0.18-5.47-0.54c-1.79-0.36-3.49-0.89-5.08-1.61c-1.6-0.71-3.07-1.59-4.42-2.65
			c-1.35-1.05-2.53-2.27-3.52-3.65c-0.99-1.38-1.76-2.91-2.32-4.6s-0.83-3.54-0.83-5.55V72.84c0-2.55,0.49-4.83,1.45-6.84
			c0.97-2.01,2.37-3.7,4.21-5.08c1.84-1.38,4.08-2.43,6.72-3.17c2.64-0.74,5.64-1.1,8.99-1.1h58.08c2.25,0,4.07,1.82,4.07,4.07v6.59
			c0,2.25-1.82,4.07-4.07,4.07h-64.65v28.41h50.29c1.75,0,3.17-1.42,3.17-3.17v-0.23c0-1.75-1.42-3.17-3.17-3.17h-19.05
			c-2.25,0-4.07-1.82-4.07-4.07v-6.98C525.06,79.92,526.88,78.1,529.13,78.1z"/>
		<path d="M595.25,56.45h57.19c2.25,0,4.07,1.82,4.07,4.07v6.94c0,2.25-1.82,4.07-4.07,4.07h-59.9c-1.75,0-3.17,1.42-3.17,3.17v0.46
			c0,1.75,1.42,3.17,3.17,3.17h59.9c2.25,0,4.07,1.82,4.07,4.07v6.98c0,2.25-1.82,4.07-4.07,4.07h-59.9c-1.75,0-3.17,1.42-3.17,3.17
			v0c0,1.75,1.42,3.17,3.17,3.17h59.9c2.25,0,4.07,1.82,4.07,4.07v7.36c0,2.25-1.82,4.07-4.07,4.07H595.1
			c-2.71,0-5.3-0.46-7.77-1.39c-2.48-0.93-4.67-2.22-6.57-3.88c-1.91-1.66-3.43-3.65-4.56-5.95c-1.13-2.31-1.7-4.84-1.7-7.6V75.24
			c0-2.94,0.54-5.57,1.62-7.9c1.08-2.33,2.56-4.3,4.42-5.91s4.06-2.84,6.59-3.69C589.66,56.88,592.37,56.45,595.25,56.45z"/>
		<path d="M281.72,151.71h74.92c2.25,0,4.07,1.82,4.07,4.07v6.67c0,2.25-1.82,4.07-4.07,4.07h-29.98v39.45
			c0,2.25-1.82,4.07-4.07,4.07h-6.59c-2.25,0-4.07-1.82-4.07-4.07v-39.45h-30.21c-2.25,0-4.07-1.82-4.07-4.07v-6.67
			C277.65,153.53,279.48,151.71,281.72,151.71z"/>
		<path d="M368.6,155.86c0-2.25,1.82-4.07,4.07-4.07l59.82,0.07c2.34,0,4.59,0.5,6.72,1.49c2.14,0.99,4.03,2.32,5.68,4
			c1.65,1.68,2.96,3.61,3.94,5.8c0.98,2.19,1.47,4.5,1.47,6.92c0,1.78-0.28,3.54-0.85,5.28c-0.57,1.74-1.39,3.38-2.47,4.93
			c1.21,1.44,2.16,3.04,2.84,4.81c0.68,1.77,1.02,3.46,1.02,5.08v15.8c0,2.25-1.82,4.07-4.07,4.07h-6.9c-2.25,0-4.07-1.82-4.07-4.07
			V188.2h-51.83v17.77c0,2.25-1.82,4.07-4.07,4.07h-7.25c-2.25,0-4.07-1.82-4.07-4.07V155.86z M387.15,173.55h45.49
			c1.75,0,3.17-1.42,3.17-3.17v-0.69c0-1.75-1.42-3.17-3.17-3.17h-45.49c-1.75,0-3.17,1.42-3.17,3.17v0.69
			C383.98,172.13,385.4,173.55,387.15,173.55z"/>
		<path d="M473.05,210.04h-7.59c-3.05,0-5.01-3.23-3.61-5.94l19.66-38.01c1.16-2.24,2.28-4.25,3.36-6.03s2.26-3.29,3.52-4.54
			c1.26-1.25,2.69-2.21,4.29-2.88c1.6-0.67,3.49-1,5.68-1c2.14,0,3.97,0.34,5.49,1.03c1.52,0.68,2.88,1.66,4.1,2.94
			c1.21,1.28,2.34,2.83,3.4,4.68c1.05,1.84,2.19,3.92,3.4,6.24l19.62,37.57c1.41,2.71-0.55,5.95-3.61,5.95h-7.09
			c-1.46,0-2.8-0.78-3.53-2.04l-7.6-13.22h-28.99l-6.89,13.09C475.95,209.2,474.56,210.04,473.05,210.04z M491.16,179.81H505
			l-6.88-12.44L491.16,179.81z"/>
		<path d="M545.39,163.18c0-0.4,0.05-0.82,0.16-1.21c0.83-2.89,2.28-5.32,4.36-7.26c1.37-1.27,2.93-2.29,4.68-3.05
			c1.75-0.76,3.57-1.14,5.45-1.14c4.22,0,8.3,1.89,12.21,5.68l39.81,39.19v-39.45c0-2.25,1.82-4.07,4.07-4.07h6.74
			c2.25,0,4.07,1.82,4.07,4.07v38.6c0,2.24-0.33,4.35-0.99,6.34c-0.66,1.99-1.61,3.72-2.86,5.2s-2.78,2.66-4.58,3.54
			c-1.8,0.88-3.85,1.31-6.15,1.31c-1.11,0-2.14-0.11-3.09-0.33c-0.95-0.22-1.9-0.56-2.84-1.02c-0.94-0.46-1.93-1.06-2.96-1.78
			c-0.98-0.69-2.07-1.51-3.26-2.45c-0.12-0.09-0.23-0.19-0.34-0.3l-39.69-38.69v39.61c0,2.25-1.82,4.07-4.07,4.07h-6.67
			c-2.25,0-4.07-1.82-4.07-4.07L545.39,163.18z"/>
		<path d="M704.67,173.55c2.78,0,5.39,0.49,7.81,1.45c2.42,0.97,4.53,2.29,6.32,3.98c1.79,1.69,3.19,3.65,4.21,5.89
			c1.02,2.24,1.53,4.64,1.53,7.19c0,2.6-0.55,5.01-1.66,7.21c-1.11,2.2-2.58,4.1-4.41,5.7c-3.01,2.63-6.74,4.29-11.21,5
			c-0.25,0.04-0.51,0.06-0.76,0.06l-63.85,0c-2.25,0-4.07-1.82-4.07-4.07v-6.51c0-2.25,1.82-4.07,4.07-4.07h63.61
			c1.75,0,3.17-1.42,3.17-3.17v-0.62c0-1.75-1.42-3.17-3.17-3.17h-51.48c-2.6,0-5.1-0.45-7.5-1.35c-2.4-0.9-4.52-2.16-6.36-3.77
			c-1.84-1.61-3.32-3.53-4.43-5.76c-1.11-2.23-1.66-4.67-1.66-7.33c0-1.91,0.3-3.68,0.89-5.32c0.59-1.63,1.4-3.12,2.44-4.46
			c1.03-1.34,2.25-2.53,3.65-3.56c1.4-1.03,2.92-1.9,4.54-2.61c1.62-0.71,3.33-1.25,5.1-1.62c1.78-0.38,3.55-0.56,5.33-0.56h59.71
			c2.25,0,4.07,1.82,4.07,4.07v6.2c0,2.25-1.82,4.07-4.07,4.07H654c-1.75,0-3.17,1.42-3.17,3.17v0.77c0,1.75,1.42,3.17,3.17,3.17
			H704.67z"/>
		<path d="M814.21,198.84v7.13c0,2.25-1.82,4.07-4.07,4.07h-59.59c-2.29,0-4.53-0.49-6.71-1.47s-4.11-2.29-5.8-3.94
			c-1.69-1.65-3.05-3.56-4.08-5.74c-1.03-2.18-1.55-4.45-1.55-6.82v-36.55c0-2.25,1.82-4.07,4.07-4.07h7.17
			c2.25,0,4.07,1.82,4.07,4.07v39.26h62.41C812.39,194.77,814.21,196.59,814.21,198.84z"/>
		<path d="M836.38,210.04h-7.6c-3.05,0-5.01-3.23-3.61-5.94l19.66-38.01c1.16-2.24,2.28-4.25,3.36-6.03s2.25-3.29,3.52-4.54
			c1.26-1.25,2.69-2.21,4.29-2.88c1.6-0.67,3.49-1,5.68-1c2.14,0,3.97,0.34,5.49,1.03s2.88,1.66,4.1,2.94
			c1.21,1.28,2.35,2.83,3.4,4.68c1.06,1.84,2.19,3.92,3.4,6.24l19.62,37.57c1.41,2.71-0.55,5.95-3.61,5.95h-7.09
			c-1.46,0-2.8-0.78-3.53-2.04l-7.6-13.22h-28.99l-6.89,13.09C839.27,209.2,837.89,210.04,836.38,210.04z M854.48,179.81h13.84
			l-6.88-12.44L854.48,179.81z"/>
		<path d="M912.78,151.71h74.92c2.25,0,4.07,1.82,4.07,4.07v6.67c0,2.25-1.82,4.07-4.07,4.07h-29.98v39.45
			c0,2.25-1.82,4.07-4.07,4.07h-6.59c-2.25,0-4.07-1.82-4.07-4.07v-39.45h-30.22c-2.25,0-4.07-1.82-4.07-4.07v-6.67
			C908.71,153.53,910.53,151.71,912.78,151.71z"/>
		<path d="M1018.6,151.87l46.8,0c0.36,0,0.72,0.04,1.07,0.13c4,0.99,7.29,2.82,9.92,5.5c2.62,2.68,4.43,6.02,5.4,10.01
			c0.08,0.34,0.12,0.71,0.12,1.06l0,23.51c0,1.62-0.23,3.18-0.69,4.68c-0.46,1.49-1.11,2.9-1.95,4.21c-0.84,1.31-1.84,2.51-2.99,3.6
			c-1.16,1.08-2.43,2.02-3.81,2.8c-1.38,0.79-2.84,1.39-4.39,1.82c-1.55,0.43-3.13,0.64-4.75,0.64h-45.03
			c-2.63,0-5.08-0.46-7.36-1.39c-2.28-0.93-4.25-2.22-5.91-3.86s-2.97-3.61-3.92-5.9s-1.43-4.76-1.43-7.44v-22.11
			c0-2.53,0.59-4.84,1.76-6.96c1.17-2.11,2.73-3.93,4.68-5.45c3.2-2.5,7.13-4.1,11.8-4.78
			C1018.13,151.88,1018.37,151.87,1018.6,151.87z M1066.57,166.98h-51.75v28.18h51.75V166.98z"/>
		<path d="M1089.83,155.86c0-2.25,1.82-4.07,4.07-4.07l59.82,0.07c2.34,0,4.58,0.5,6.72,1.49s4.03,2.32,5.68,4
			c1.65,1.68,2.96,3.61,3.94,5.8c0.98,2.19,1.47,4.5,1.47,6.92c0,1.78-0.28,3.54-0.85,5.28c-0.57,1.74-1.39,3.38-2.48,4.93
			c1.21,1.44,2.16,3.04,2.84,4.81c0.68,1.77,1.02,3.46,1.02,5.08v15.8c0,2.25-1.82,4.07-4.07,4.07h-6.9c-2.25,0-4.07-1.82-4.07-4.07
			V188.2h-51.83v17.77c0,2.25-1.82,4.07-4.07,4.07h-7.24c-2.25,0-4.07-1.82-4.07-4.07V155.86z M1108.38,173.55h45.49
			c1.75,0,3.17-1.42,3.17-3.17v-0.69c0-1.75-1.42-3.17-3.17-3.17h-45.49c-1.75,0-3.17,1.42-3.17,3.17v0.69
			C1105.22,172.13,1106.63,173.55,1108.38,173.55z"/>
	</g>
</g>
</svg>